<svg xmlns="http://www.w3.org/2000/svg" xmlns:xlink="http://www.w3.org/1999/xlink" width="500" zoomAndPan="magnify" viewBox="0 0 375 374.999991" height="500" preserveAspectRatio="xMidYMid meet" version="1.0"><defs><g/><clipPath id="3f24a29f5b"><path d="M 79.378906 144.726562 L 295.378906 144.726562 L 295.378906 285.726562 L 79.378906 285.726562 Z M 79.378906 144.726562 " clip-rule="nonzero"/></clipPath></defs><path fill="#ffffff" d="M 181.636719 227.34375 L 177.488281 227.34375 C 176.296875 227.34375 175.210938 226.855469 174.421875 226.066406 L 174.296875 225.949219 C 173.585938 225.175781 173.144531 224.140625 173.144531 223 C 173.144531 221.429688 171.871094 220.152344 170.292969 220.152344 C 168.71875 220.152344 167.445312 221.425781 167.445312 223 C 167.445312 225.660156 168.5 228.097656 170.21875 229.902344 L 170.394531 230.097656 C 172.042969 231.746094 174.261719 232.820312 176.714844 233.007812 L 176.714844 236.230469 C 176.714844 237.800781 177.988281 239.078125 179.566406 239.078125 C 181.140625 239.078125 182.414062 237.804688 182.414062 236.230469 L 182.414062 233.007812 C 184.871094 232.820312 187.089844 231.746094 188.734375 230.097656 L 188.734375 230.085938 C 190.554688 228.269531 191.683594 225.757812 191.683594 223 C 191.683594 220.242188 190.550781 217.734375 188.734375 215.914062 L 188.726562 215.902344 C 186.90625 214.085938 184.398438 212.957031 181.636719 212.957031 L 177.488281 212.957031 C 176.296875 212.957031 175.210938 212.464844 174.421875 211.675781 L 174.296875 211.558594 C 173.585938 210.785156 173.144531 209.75 173.144531 208.613281 C 173.144531 207.414062 173.628906 206.328125 174.410156 205.546875 L 174.421875 205.546875 C 175.210938 204.757812 176.296875 204.265625 177.488281 204.265625 L 181.636719 204.265625 C 182.835938 204.265625 183.921875 204.757812 184.710938 205.539062 C 185.492188 206.328125 185.984375 207.417969 185.984375 208.613281 C 185.984375 210.183594 187.257812 211.460938 188.832031 211.460938 C 190.410156 211.460938 191.683594 210.1875 191.683594 208.613281 C 191.683594 205.851562 190.550781 203.34375 188.734375 201.523438 L 188.726562 201.515625 C 187.078125 199.867188 184.867188 198.800781 182.414062 198.605469 L 182.414062 195.382812 C 182.414062 193.804688 181.140625 192.53125 179.566406 192.53125 C 177.988281 192.53125 176.714844 193.804688 176.714844 195.382812 L 176.714844 198.605469 C 174.261719 198.792969 172.042969 199.867188 170.402344 201.519531 C 168.578125 203.34375 167.445312 205.851562 167.445312 208.605469 C 167.445312 211.265625 168.5 213.699219 170.21875 215.507812 L 170.394531 215.703125 C 172.214844 217.523438 174.730469 218.652344 177.492188 218.652344 L 181.644531 218.652344 C 182.84375 218.652344 183.925781 219.140625 184.714844 219.925781 C 185.496094 220.710938 185.988281 221.800781 185.988281 222.996094 C 185.988281 224.195312 185.496094 225.277344 184.710938 226.0625 C 183.917969 226.855469 182.832031 227.34375 181.636719 227.34375 Z M 181.636719 227.34375 " fill-opacity="1" fill-rule="nonzero"/><path fill="#ffffff" d="M 179.566406 251.941406 C 189.546875 251.941406 198.582031 247.894531 205.117188 241.355469 C 211.660156 234.820312 215.699219 225.785156 215.699219 215.804688 C 215.699219 205.828125 211.652344 196.792969 205.117188 190.253906 C 198.582031 183.714844 189.546875 179.671875 179.566406 179.671875 C 169.585938 179.671875 160.550781 183.71875 154.015625 190.253906 C 147.472656 196.796875 143.429688 205.832031 143.429688 215.804688 C 143.429688 225.785156 147.480469 234.820312 154.015625 241.355469 C 160.550781 247.898438 169.585938 251.941406 179.566406 251.941406 Z M 158.582031 194.820312 C 163.953125 189.449219 171.371094 186.132812 179.566406 186.132812 C 187.757812 186.132812 195.179688 189.457031 200.550781 194.820312 C 205.921875 200.191406 209.242188 207.613281 209.242188 215.804688 C 209.242188 224 205.914062 231.421875 200.550781 236.789062 C 195.179688 242.160156 187.757812 245.480469 179.566406 245.480469 C 171.371094 245.480469 163.953125 242.15625 158.582031 236.789062 C 153.210938 231.421875 149.890625 224 149.890625 215.804688 C 149.886719 207.613281 153.210938 200.191406 158.582031 194.820312 Z M 158.582031 194.820312 " fill-opacity="1" fill-rule="nonzero"/><g clip-path="url(#3f24a29f5b)"><path fill="#ffffff" d="M 295.242188 242.492188 L 279.71875 167.359375 L 279.71875 167.34375 C 279.71875 166.882812 279.621094 166.449219 279.449219 166.054688 L 275.628906 147.574219 C 275.273438 145.828125 273.570312 144.707031 271.832031 145.0625 L 179.625 164.117188 L 82.640625 164.117188 C 80.859375 164.117188 79.414062 165.5625 79.414062 167.34375 L 79.414062 264.269531 C 79.414062 266.050781 80.859375 267.496094 82.640625 267.496094 L 95.890625 267.496094 L 99.097656 283.003906 C 99.453125 284.746094 101.152344 285.867188 102.890625 285.511719 L 190.078125 267.496094 L 276.484375 267.496094 C 278.265625 267.496094 279.714844 266.050781 279.714844 264.269531 L 279.714844 248.976562 L 292.726562 246.289062 C 294.46875 245.933594 295.597656 244.234375 295.242188 242.492188 Z M 269.976562 152.019531 L 272.476562 164.117188 L 211.433594 164.117188 Z M 104.753906 278.554688 L 102.46875 267.496094 L 158.277344 267.496094 Z M 273.257812 261.042969 L 85.875 261.042969 L 85.875 170.578125 L 273.257812 170.578125 Z M 279.71875 242.402344 L 279.71875 199.167969 L 288.285156 240.632812 Z M 279.71875 242.402344 " fill-opacity="1" fill-rule="nonzero"/></g><path fill="#ffffff" d="M 99.242188 201.621094 C 101.023438 201.621094 102.46875 200.175781 102.46875 198.394531 L 102.46875 186.292969 L 114.570312 186.292969 C 116.351562 186.292969 117.796875 184.847656 117.796875 183.066406 C 117.796875 181.285156 116.351562 179.839844 114.570312 179.839844 L 99.242188 179.839844 C 97.460938 179.839844 96.015625 181.285156 96.015625 183.066406 L 96.015625 198.394531 C 96.007812 200.175781 97.457031 201.621094 99.242188 201.621094 Z M 99.242188 201.621094 " fill-opacity="1" fill-rule="nonzero"/><path fill="#ffffff" d="M 114.570312 245.320312 L 102.46875 245.320312 L 102.46875 233.21875 C 102.46875 231.4375 101.023438 229.992188 99.242188 229.992188 C 97.460938 229.992188 96.015625 231.4375 96.015625 233.21875 L 96.015625 248.546875 C 96.015625 250.328125 97.460938 251.773438 99.242188 251.773438 L 114.570312 251.773438 C 116.351562 251.773438 117.796875 250.328125 117.796875 248.546875 C 117.796875 246.765625 116.351562 245.320312 114.570312 245.320312 Z M 114.570312 245.320312 " fill-opacity="1" fill-rule="nonzero"/><path fill="#ffffff" d="M 244.554688 186.292969 L 256.65625 186.292969 L 256.65625 198.394531 C 256.65625 200.175781 258.101562 201.621094 259.882812 201.621094 C 261.664062 201.621094 263.113281 200.175781 263.113281 198.394531 L 263.113281 183.066406 C 263.113281 181.285156 261.664062 179.839844 259.882812 179.839844 L 244.554688 179.839844 C 242.773438 179.839844 241.328125 181.285156 241.328125 183.066406 C 241.328125 184.847656 242.773438 186.292969 244.554688 186.292969 Z M 244.554688 186.292969 " fill-opacity="1" fill-rule="nonzero"/><path fill="#ffffff" d="M 244.554688 251.78125 L 259.882812 251.78125 C 261.664062 251.78125 263.113281 250.332031 263.113281 248.550781 L 263.113281 233.222656 C 263.113281 231.441406 261.664062 229.996094 259.882812 229.996094 C 258.101562 229.996094 256.65625 231.441406 256.65625 233.222656 L 256.65625 245.324219 L 244.554688 245.324219 C 242.773438 245.324219 241.328125 246.769531 241.328125 248.550781 C 241.328125 250.332031 242.773438 251.78125 244.554688 251.78125 Z M 244.554688 251.78125 " fill-opacity="1" fill-rule="nonzero"/><path fill="#ffffff" d="M 14.96875 216.378906 C 14.3125 216.066406 13.671875 215.722656 13.046875 215.347656 C 12.417969 214.976562 11.8125 214.570312 11.226562 214.140625 C 10.640625 213.710938 10.074219 213.25 9.53125 212.765625 C 8.984375 212.28125 8.464844 211.773438 7.972656 211.238281 C 7.476562 210.703125 7.007812 210.148438 6.5625 209.570312 C 6.121094 208.988281 5.707031 208.390625 5.320312 207.773438 C 4.933594 207.15625 4.578125 206.519531 4.253906 205.871094 C 3.925781 205.21875 3.632812 204.550781 3.371094 203.871094 C 3.105469 203.191406 2.878906 202.503906 2.679688 201.800781 C 2.484375 201.101562 2.320312 200.390625 2.1875 199.675781 C 2.058594 198.957031 1.960938 198.234375 1.902344 197.507812 C 1.839844 196.785156 1.8125 196.054688 1.820312 195.328125 C 1.828125 194.597656 1.867188 193.871094 1.945312 193.148438 C 2.019531 192.421875 2.128906 191.703125 2.273438 190.988281 C 2.417969 190.277344 2.597656 189.570312 2.808594 188.871094 C 3.019531 188.175781 3.261719 187.488281 3.539062 186.816406 C 5.777344 182.707031 8.15625 178.675781 10.667969 174.726562 C 13.179688 170.773438 15.820312 166.910156 18.589844 163.136719 C 21.359375 159.363281 24.253906 155.6875 27.269531 152.109375 C 30.285156 148.527344 33.417969 145.054688 36.667969 141.683594 C 39.917969 138.3125 43.277344 135.058594 46.746094 131.914062 C 50.210938 128.769531 53.78125 125.742188 57.453125 122.835938 C 61.121094 119.933594 64.886719 117.152344 68.742188 114.5 C 72.601562 111.847656 76.542969 109.324219 80.566406 106.9375 C 84.59375 104.546875 88.695312 102.296875 92.871094 100.183594 C 97.046875 98.066406 101.289062 96.097656 105.597656 94.265625 C 109.90625 92.4375 114.273438 90.753906 118.695312 89.214844 C 123.117188 87.679688 127.585938 86.292969 132.101562 85.054688 C 136.613281 83.816406 141.164062 82.730469 145.753906 81.796875 C 150.339844 80.867188 154.953125 80.085938 159.59375 79.464844 C 164.234375 78.839844 168.886719 78.375 173.558594 78.0625 C 178.230469 77.75 182.90625 77.597656 187.585938 77.597656 C 192.269531 77.601562 196.945312 77.757812 201.617188 78.074219 C 206.285156 78.390625 210.941406 78.859375 215.578125 79.488281 C 220.21875 80.117188 224.832031 80.898438 229.417969 81.835938 C 234.003906 82.769531 238.554688 83.859375 243.070312 85.101562 C 247.582031 86.34375 252.050781 87.734375 256.46875 89.277344 C 260.890625 90.816406 265.253906 92.503906 269.5625 94.335938 C 273.867188 96.171875 278.109375 98.144531 282.285156 100.265625 C 286.460938 102.382812 290.558594 104.636719 294.582031 107.027344 C 298.605469 109.421875 302.546875 111.945312 306.398438 114.601562 C 310.253906 117.257812 314.015625 120.042969 317.683594 122.949219 C 321.351562 125.859375 324.917969 128.886719 328.382812 132.035156 C 331.847656 135.183594 335.203125 138.441406 338.449219 141.816406 C 341.699219 145.1875 344.828125 148.664062 347.839844 152.246094 C 350.855469 155.828125 353.746094 159.507812 356.511719 163.285156 C 359.277344 167.0625 361.914062 170.925781 364.421875 174.878906 C 366.933594 178.832031 369.304688 182.863281 371.542969 186.976562 C 371.816406 187.648438 372.0625 188.335938 372.269531 189.03125 C 372.480469 189.730469 372.660156 190.4375 372.800781 191.152344 C 372.945312 191.863281 373.054688 192.585938 373.128906 193.308594 C 373.207031 194.035156 373.246094 194.761719 373.253906 195.488281 C 373.261719 196.21875 373.230469 196.945312 373.167969 197.671875 C 373.109375 198.398438 373.011719 199.117188 372.878906 199.835938 C 372.75 200.550781 372.585938 201.261719 372.386719 201.960938 C 372.1875 202.664062 371.957031 203.351562 371.695312 204.03125 C 371.433594 204.710938 371.136719 205.378906 370.808594 206.027344 C 370.484375 206.679688 370.128906 207.3125 369.742188 207.933594 C 369.355469 208.550781 368.941406 209.148438 368.496094 209.726562 C 368.054688 210.304688 367.582031 210.859375 367.085938 211.394531 C 366.59375 211.925781 366.070312 212.4375 365.527344 212.921875 C 364.984375 213.40625 364.417969 213.863281 363.832031 214.292969 C 363.242188 214.726562 362.636719 215.125 362.011719 215.5 C 361.382812 215.875 360.742188 216.214844 360.085938 216.527344 L 317.394531 233.992188 C 316.6875 234.367188 315.960938 234.703125 315.214844 235.003906 C 314.472656 235.300781 313.714844 235.5625 312.941406 235.78125 C 312.171875 236 311.390625 236.179688 310.601562 236.320312 C 309.8125 236.457031 309.015625 236.554688 308.21875 236.613281 C 307.417969 236.667969 306.617188 236.679688 305.816406 236.652344 C 305.015625 236.625 304.214844 236.558594 303.421875 236.445312 C 302.628906 236.335938 301.84375 236.183594 301.0625 235.988281 C 300.285156 235.796875 299.519531 235.5625 298.765625 235.292969 C 298.011719 235.019531 297.273438 234.707031 296.550781 234.359375 C 295.832031 234.007812 295.128906 233.621094 294.449219 233.199219 C 293.765625 232.777344 293.109375 232.316406 292.476562 231.828125 C 291.84375 231.335938 291.238281 230.8125 290.65625 230.257812 C 290.078125 229.703125 289.53125 229.121094 289.011719 228.507812 C 288.496094 227.894531 288.007812 227.257812 287.558594 226.597656 C 287.105469 225.933594 286.691406 225.25 286.308594 224.542969 C 285.929688 223.835938 285.585938 223.113281 285.28125 222.371094 C 283.953125 220.363281 282.5625 218.398438 281.109375 216.476562 C 279.660156 214.554688 278.152344 212.675781 276.585938 210.847656 C 275.019531 209.019531 273.398438 207.238281 271.71875 205.507812 C 270.042969 203.78125 268.316406 202.101562 266.535156 200.480469 C 264.757812 198.855469 262.929688 197.289062 261.054688 195.777344 C 259.179688 194.269531 257.257812 192.816406 255.292969 191.425781 C 253.328125 190.03125 251.320312 188.703125 249.273438 187.433594 C 247.226562 186.164062 245.140625 184.960938 243.019531 183.820312 C 240.898438 182.679688 238.742188 181.605469 236.554688 180.597656 C 234.367188 179.589844 232.152344 178.652344 229.90625 177.78125 C 227.660156 176.910156 225.390625 176.109375 223.09375 175.378906 C 220.800781 174.648438 218.484375 173.988281 216.148438 173.398438 C 213.8125 172.8125 211.460938 172.292969 209.09375 171.851562 C 206.726562 171.40625 204.347656 171.039062 201.957031 170.742188 C 199.566406 170.445312 197.171875 170.21875 194.765625 170.070312 C 192.363281 169.921875 189.957031 169.847656 187.546875 169.84375 C 185.140625 169.84375 182.734375 169.917969 180.328125 170.066406 C 177.925781 170.210938 175.527344 170.433594 173.136719 170.726562 C 170.746094 171.023438 168.367188 171.390625 166 171.832031 C 163.632812 172.273438 161.28125 172.789062 158.945312 173.375 C 156.605469 173.960938 154.292969 174.617188 151.996094 175.347656 C 149.699219 176.078125 147.429688 176.875 145.183594 177.746094 C 142.9375 178.613281 140.71875 179.550781 138.53125 180.554688 C 136.34375 181.5625 134.1875 182.632812 132.0625 183.773438 C 129.941406 184.910156 127.855469 186.113281 125.808594 187.378906 C 123.757812 188.648438 121.75 189.976562 119.785156 191.367188 C 117.816406 192.757812 115.894531 194.207031 114.019531 195.714844 C 112.140625 197.222656 110.3125 198.789062 108.53125 200.410156 C 106.75 202.03125 105.019531 203.707031 103.34375 205.4375 C 101.664062 207.164062 100.042969 208.941406 98.476562 210.769531 C 96.90625 212.597656 95.394531 214.472656 93.945312 216.394531 C 92.492188 218.316406 91.097656 220.28125 89.765625 222.285156 C 89.460938 223.027344 89.117188 223.75 88.738281 224.457031 C 88.355469 225.164062 87.941406 225.847656 87.488281 226.507812 C 87.035156 227.171875 86.550781 227.808594 86.03125 228.417969 C 85.511719 229.03125 84.964844 229.613281 84.382812 230.167969 C 83.804688 230.722656 83.199219 231.246094 82.566406 231.734375 C 81.929688 232.226562 81.273438 232.683594 80.589844 233.105469 C 79.910156 233.527344 79.207031 233.914062 78.488281 234.261719 C 77.765625 234.613281 77.027344 234.921875 76.273438 235.195312 C 75.519531 235.46875 74.75 235.699219 73.972656 235.890625 C 73.195312 236.082031 72.410156 236.234375 71.613281 236.34375 C 70.820312 236.457031 70.023438 236.523438 69.222656 236.550781 C 68.417969 236.578125 67.621094 236.5625 66.820312 236.507812 C 66.019531 236.449219 65.226562 236.351562 64.433594 236.214844 C 63.644531 236.074219 62.867188 235.894531 62.09375 235.671875 C 61.324219 235.453125 60.566406 235.191406 59.824219 234.890625 C 59.078125 234.59375 58.351562 234.253906 57.644531 233.878906 Z M 14.96875 216.378906 " fill-opacity="1" fill-rule="nonzero"/><g fill="#5e17eb" fill-opacity="1"><g transform="translate(62.092743, 217.695801)"><g><path d="M -20.375 -41.59375 C -18.613281 -43.957031 -16.675781 -45.660156 -14.5625 -46.703125 C -12.445312 -47.742188 -10.289062 -48.113281 -8.09375 -47.8125 C -5.90625 -47.507812 -3.78125 -46.585938 -1.71875 -45.046875 C 0.351562 -43.515625 1.84375 -41.742188 2.75 -39.734375 C 3.664062 -37.734375 3.9375 -35.566406 3.5625 -33.234375 C 3.1875 -30.910156 2.117188 -28.566406 0.359375 -26.203125 L -4.265625 -19.96875 L 8.046875 -10.828125 L 3.1875 -4.296875 L -29.859375 -28.828125 Z M -5.46875 -29.203125 C -2.769531 -32.835938 -3.144531 -35.929688 -6.59375 -38.484375 C -10.0625 -41.066406 -13.144531 -40.539062 -15.84375 -36.90625 L -19.828125 -31.53125 L -9.453125 -23.828125 Z M -5.46875 -29.203125 "/></g></g></g><g fill="#5e17eb" fill-opacity="1"><g transform="translate(82.693419, 190.775484)"><g><path d="M 9.78125 -9.28125 L 3.875 -3.671875 L -24.453125 -33.53125 L -18.546875 -39.140625 Z M 9.78125 -9.28125 "/></g></g></g><g fill="#5e17eb" fill-opacity="1"><g transform="translate(92.330694, 179.31252)"><g><path d="M 11.1875 -7.0625 L 4.515625 -2.859375 L -17.46875 -37.65625 L -9.578125 -42.625 L 18.5625 -29.03125 L 19.109375 -29.515625 L 5 -51.84375 L 11.625 -56.03125 L 33.609375 -21.234375 L 26.5625 -16.78125 L -3.34375 -31.390625 L -3.875 -30.90625 Z M 11.1875 -7.0625 "/></g></g></g><g fill="#5e17eb" fill-opacity="1"><g transform="translate(126.287463, 157.991438)"><g><path d="M 13.859375 -4.03125 C 10.546875 -2.914062 7.582031 -2.617188 4.96875 -3.140625 C 2.363281 -3.660156 0.207031 -4.816406 -1.5 -6.609375 L 1.09375 -13.328125 L 1.75 -13.546875 C 3.03125 -12.078125 4.488281 -11.070312 6.125 -10.53125 C 7.769531 -9.988281 9.457031 -10.003906 11.1875 -10.578125 C 13.113281 -11.234375 14.359375 -12.28125 14.921875 -13.71875 C 15.492188 -15.164062 15.347656 -17.160156 14.484375 -19.703125 L 5.875 -45.375 L 13.578125 -47.953125 L 22.234375 -22.15625 C 23.816406 -17.4375 23.910156 -13.597656 22.515625 -10.640625 C 21.117188 -7.691406 18.234375 -5.488281 13.859375 -4.03125 Z M 13.859375 -4.03125 "/></g></g></g><g fill="#5e17eb" fill-opacity="1"><g transform="translate(153.457192, 148.269899)"><g><path d="M 11.34375 -19.5 L 12.625 -8.296875 L 32.15625 -10.53125 L 32.921875 -3.765625 L 5.3125 -0.609375 L 0.640625 -41.5 L 27.796875 -44.59375 L 28.578125 -37.828125 L 9.5 -35.65625 L 10.578125 -26.09375 L 27.25 -28 L 28.015625 -21.40625 Z M 11.34375 -19.5 "/></g></g></g><g fill="#5e17eb" fill-opacity="1"><g transform="translate(183.074518, 142.935665)"><g><path d="M 12.65625 2 L 5.28125 0.84375 L 11.71875 -39.8125 L 22.21875 -38.15625 L 27.78125 -6.625 L 28.375 -6.53125 L 43.34375 -34.8125 L 53.59375 -33.1875 L 47.15625 7.46875 L 39.53125 6.265625 L 43.78125 -20.59375 L 43.125 -20.8125 L 29.4375 4.671875 L 22.75 3.609375 L 17.625 -24.859375 L 16.90625 -24.859375 Z M 12.65625 2 "/></g></g></g><g fill="#5e17eb" fill-opacity="1"><g transform="translate(229.947144, 150.940943)"><g><path d="M 29.140625 -32.03125 L 15.078125 -0.703125 L 31.96875 6.875 L 29.1875 13.09375 L 4.875 2.1875 L 21.71875 -35.359375 Z M 29.140625 -32.03125 "/></g></g></g><g fill="#5e17eb" fill-opacity="1"><g transform="translate(256.511613, 161.867918)"><g><path d="M 31.53125 23.796875 L 24.6875 18.640625 L 27.9375 9.1875 L 15.359375 -0.296875 L 7.171875 5.40625 L 0.5 0.375 L 36.640625 -23.921875 L 44.984375 -17.625 Z M 35.234375 -14.21875 L 21.21875 -4.4375 L 30.25 2.390625 L 35.796875 -13.796875 Z M 35.234375 -14.21875 "/></g></g></g><g fill="#5e17eb" fill-opacity="1"><g transform="translate(284.930747, 181.994342)"><g><path d="M 39.875 9.375 L 52.09375 -0.140625 L 57.078125 6.25 L 24.625 31.5625 L 19.640625 25.171875 L 34.421875 13.640625 L 23.078125 -0.90625 L 8.296875 10.625 L 3.28125 4.21875 L 35.734375 -21.09375 L 40.75 -14.6875 L 28.53125 -5.171875 Z M 39.875 9.375 "/></g></g></g></svg>